Coordinates
version=1
nRows=16
nColumns=22
inDegrees=yes

Units are S.I. units (second, meters, Newtons, ...)
If the header above contains a line with 'inDegrees', this indicates whether rotational values are in degrees (yes) or radians (no).

endheader
time	pelvis_tilt	pelvis_list	pelvis_rotation	pelvis_tx	pelvis_ty	pelvis_tz	hip_flexion_r	hip_adduction_r	hip_rotation_r	knee_angle_r	ankle_angle_r	subtalar_angle_r	hip_flexion_l	hip_adduction_l	hip_rotation_l	knee_angle_l	ankle_angle_l	subtalar_angle_l	lumbar_extension	lumbar_bending	lumbar_rotation
      3.70000000	      5.45610160	      5.18656611	     83.37507532	      0.00086849	      1.02489722	     -0.53603219	     -0.40834663	      6.24025180	     -0.47658562	    -14.87816153	      8.80102808	     -1.30249396	     -3.89388636	     -2.44787395	     -6.10817974	    -11.84619585	     12.89422503	     -3.46033244	    -12.33370810	      2.59384549	      1.92501871
      3.71000000	      5.36341371	      5.10683405	     83.51241136	      0.00110017	      1.02471134	     -0.53628009	     -0.29527907	      6.18021656	     -0.58295135	    -14.94167202	      8.87636668	     -1.38586066	     -3.79000495	     -2.39004618	     -5.99564369	    -11.85563558	     12.87495078	     -3.43383722	    -12.27359898	      2.56111845	      1.92628557
      3.72000000	      5.26449875	      5.02601945	     83.64267826	      0.00129076	      1.02450545	     -0.53647031	     -0.16002269	      6.11019552	     -0.68086243	    -15.03791206	      8.96388310	     -1.45911400	     -3.68251514	     -2.31984262	     -5.87363097	    -11.86294023	     12.87100010	     -3.41781408	    -12.22115655	      2.52702465	      1.93866009
      3.73000000	      5.15756154	      4.92803276	     83.78392875	      0.00141842	      1.02425707	     -0.53660065	      0.00751781	      6.03031530	     -0.78697723	    -15.15107819	      9.05577715	     -1.53843382	     -3.53746515	     -2.24088601	     -5.73915500	    -11.89415301	     12.86675504	     -3.40928214	    -12.15708497	      2.49475632	      1.93614200
      3.74000000	      5.04379376	      4.82374767	     83.93337482	      0.00149891	      1.02398685	     -0.53669657	      0.18993982	      5.94106866	     -0.89789982	    -15.27477103	      9.15484566	     -1.61870391	     -3.37334367	     -2.15287672	     -5.59451497	    -11.94109138	     12.86352182	     -3.40752337	    -12.08855767	      2.46069368	      1.92618285
      3.75000000	      4.92958121	      4.69877813	     84.08752941	      0.00154967	      1.02367745	     -0.53674977	      0.40501918	      5.85154737	     -1.00987881	    -15.41380389	      9.23899023	     -1.70944128	     -3.17409783	     -2.06529855	     -5.44063195	    -12.00575567	     12.87579312	     -3.41579654	    -12.00029342	      2.43456426	      1.90805757
      3.76000000	      4.81239039	      4.59817925	     84.25367833	      0.00157064	      1.02340524	     -0.53681367	      0.58347816	      5.75454296	     -1.12977070	    -15.53594018	      9.34051975	     -1.78778024	     -2.99831555	     -1.97015991	     -5.27440389	    -12.07413527	     12.87158244	     -3.42286772	    -11.93850837	      2.40396867	      1.87877383
      3.77000000	      4.69729459	      4.54673177	     84.41624873	      0.00160204	      1.02321080	     -0.53690635	      0.69709125	      5.65363799	     -1.25078462	    -15.64203793	      9.45768257	     -1.84220450	     -2.88889291	     -1.87057656	     -5.11272491	    -12.12212414	     12.89126879	     -3.42306107	    -11.93068105	      2.36784112	      1.85541596
      3.78000000	      4.59772891	      4.46776201	     84.60385517	      0.00161810	      1.02299021	     -0.53699852	      0.82959313	      5.57381443	     -1.39050310	    -15.73019510	      9.54280306	     -1.91228381	     -2.73354489	     -1.79338045	     -4.92005145	    -12.19904299	     12.87655649	     -3.42805001	    -11.88944696	      2.35656321	      1.80296974
      3.79000000	      4.51357374	      4.38254675	     84.78215404	      0.00167416	      1.02277548	     -0.53713307	      0.94963837	      5.51188225	     -1.52227522	    -15.78921572	      9.60621196	     -1.99300369	     -2.57362437	     -1.73567028	     -4.75253012	    -12.28316457	     12.87358696	     -3.44355654	    -11.83279683	      2.36126777	      1.77205594
      3.80000000	      4.44511428	      4.36172547	     84.94979908	      0.00178505	      1.02266908	     -0.53729666	      0.99354431	      5.46520450	     -1.63172569	    -15.84701644	      9.67790419	     -2.04165436	     -2.49995339	     -1.68919996	     -4.59201462	    -12.34575116	     12.89331779	     -3.44578094	    -11.85000214	      2.36808689	      1.74042457
      3.81000000	      4.38831443	      4.34129965	     85.12567544	      0.00189800	      1.02258382	     -0.53748591	      1.01968819	      5.43011038	     -1.76336386	    -15.87433589	      9.72599825	     -2.09405109	     -2.42745766	     -1.65653108	     -4.42331030	    -12.40969987	     12.88819553	     -3.44759721	    -11.86361416	      2.39109446	      1.70129172
      3.82000000	      4.34070790	      4.33311440	     85.29244062	      0.00205124	      1.02252568	     -0.53770238	      1.02377082	      5.40596249	     -1.88702928	    -15.88999229	      9.77006266	     -2.14454715	     -2.37361166	     -1.63418424	     -4.26785701	    -12.47088080	     12.89533080	     -3.44989684	    -11.88625962	      2.41729466	      1.67400411
      3.83000000	      4.30028206	      4.33407875	     85.45705179	      0.00223517	      1.02249016	     -0.53794798	      1.01118357	      5.39078056	     -2.01140477	    -15.89823593	      9.80714066	     -2.19454668	     -2.33473074	     -1.62064989	     -4.11849573	    -12.52814063	     12.89789212	     -3.45134329	    -11.91292916	      2.44467807	      1.64610966
      3.84000000	      4.26281811	      4.34109864	     85.61456800	      0.00242570	      1.02246869	     -0.53819449	      0.98984869	      5.37804724	     -2.13200529	    -15.90212321	      9.84203077	     -2.24493131	     -2.30546327	     -1.60896904	     -3.97489837	    -12.58153548	     12.90204675	     -3.45244335	    -11.94663373	      2.47574718	      1.62146311
      3.85000000	      4.22843708	      4.35218723	     85.76373839	      0.00261443	      1.02245364	     -0.53844051	      0.96585494	      5.36740596	     -2.24498108	    -15.90974390	      9.87965328	     -2.29354766	     -2.28338535	     -1.59882084	     -3.83776860	    -12.63221679	     12.90570644	     -3.45255308	    -11.98604695	      2.51199291	      1.59847461
